<svg xmlns="http://www.w3.org/2000/svg" viewBox="0 0 26 43" width="26" height="43">
	<style>
		tspan { white-space:pre }
		.shp0 { fill: #d4d4d4 } 
	</style>
	<g id="desktop">
		<g id="slider">
			<g id="next">
				<path id="arrow" class="shp0" d="M2 6.02L17.07 20.99L1.81 36.16L1.81 36.16C1.31 36.67 1 37.37 1 38.14C1 39.72 2.29 41 3.87 41C4.65 41 5.35 40.69 5.87 40.2L5.87 40.2L23.12 23.06L23.12 23.06C23.66 22.54 24 21.81 24 21C24 21 24 21 24 20.99C24 20.99 24 20.99 24 20.99C24 20.18 23.66 19.45 23.12 18.93L23.12 18.93L5.87 1.79L5.86 1.79C5.35 1.3 4.65 1 3.87 1C2.29 1 1 2.28 1 3.86C1 4.72 1.39 5.5 2 6.02Z" />
			</g>
		</g>
	</g>
</svg>