<svg id="like1"  xmlns="http://www.w3.org/2000/svg" viewBox="0 0 36 32" width="36" height="32">
  <style>
    tspan { white-space:pre }
    .shp01 { fill: #AEFF6B }
  </style>
  <g id="desktop">
    <g id="slider">
      <g id="design">
        <g id="like">
          <path id="icon" class="shp01" d="M31.2 5.11C27.57 1.52 21.76 1.45 18 4.82C14.24 1.45 8.44 1.52 4.81 5.11C1.07 8.81 1.07 14.81 4.81 18.5C5.88 19.56 15.86 29.43 15.86 29.43C17.05 30.6 18.96 30.6 20.14 29.43C20.14 29.43 31.07 18.62 31.2 18.5C34.94 14.81 34.94 8.81 31.2 5.11ZM29.77 17.09L18.72 28.02C18.32 28.41 17.68 28.41 17.29 28.02L6.24 17.09C3.29 14.18 3.29 9.44 6.24 6.52C9.08 3.71 13.65 3.61 16.65 6.3L18 7.52L19.36 6.3C22.35 3.61 26.93 3.71 29.77 6.52C32.72 9.44 32.72 14.18 29.77 17.09ZM11.26 7.34C11.25 7.34 11.25 7.35 11.25 7.35C8.91 7.35 7.01 9.25 7.01 11.59L7.01 11.59C7.01 11.86 7.23 12.09 7.51 12.09C7.78 12.09 8.01 11.86 8.01 11.59L8.01 11.59C8.01 9.8 9.46 8.34 11.25 8.34L11.26 8.34C11.53 8.34 11.76 8.12 11.76 7.84C11.76 7.57 11.53 7.34 11.26 7.34Z" />
        </g>
      </g>
    </g>
  </g>
</svg>
