<svg xmlns="http://www.w3.org/2000/svg" viewBox="0 0 28 28" width="28" height="28">
	<style>
		tspan { white-space:pre }
		.shp0 { fill: #6d6e71 } 
	</style>
	<g id="desktop">
		<g id="Header">
			<g id="search">
				<path id="icon" fill-rule="evenodd" class="shp0" d="M25.47 23.11L25.47 23.11C25.8 23.42 26 23.85 26 24.33C26 25.25 25.25 26 24.33 26C23.85 26 23.42 25.8 23.11 25.47L23.11 25.47L19.75 22.11C20.51 21.15 20.97 19.95 21 18.64L25.47 23.11ZM11.83 1C17.82 1 22.67 5.85 22.67 11.83C22.67 17.82 17.82 22.67 11.83 22.67C5.85 22.67 1 17.82 1 11.83C1 5.85 5.85 1 11.83 1ZM4.33 11.83C4.33 15.98 7.69 19.33 11.83 19.33C15.98 19.33 19.33 15.98 19.33 11.83C19.33 7.69 15.98 4.33 11.83 4.33C7.69 4.33 4.33 7.69 4.33 11.83Z" />
			</g>
		</g>
	</g>
</svg>